G04 (created by PCBNEW-RS274X (2010-00-09 BZR 23xx)-stable) date Вск 19 Июн 2011 21:32:10*
G01*
G70*
G90*
%MOIN*%
G04 Gerber Fmt 3.4, Leading zero omitted, Abs format*
%FSLAX34Y34*%
G04 APERTURE LIST*
%ADD10C,0.006000*%
%ADD11C,0.015000*%
%ADD12R,0.014000X0.063000*%
%ADD13R,0.015700X0.053100*%
%ADD14R,0.090600X0.074800*%
%ADD15R,0.070900X0.074800*%
%ADD16C,0.035400*%
%ADD17C,0.007900*%
%ADD18C,0.010000*%
G04 APERTURE END LIST*
G54D10*
G54D11*
X18750Y-06000D02*
X13750Y-06000D01*
X18750Y-15000D02*
X18750Y-06000D01*
X17500Y-15000D02*
X18750Y-15000D01*
X17500Y-19750D02*
X17500Y-15000D01*
X15500Y-19750D02*
X17500Y-19750D01*
X15500Y-18750D02*
X15500Y-19750D01*
X15000Y-18750D02*
X15500Y-18750D01*
X15000Y-15000D02*
X15000Y-18750D01*
X13750Y-15000D02*
X15000Y-15000D01*
X13750Y-06000D02*
X13750Y-15000D01*
G54D12*
X14500Y-12545D03*
X14750Y-12545D03*
X15000Y-12545D03*
X15250Y-12545D03*
X15500Y-12545D03*
X15750Y-12545D03*
X16000Y-12545D03*
X16250Y-12545D03*
X16500Y-12545D03*
X16750Y-12545D03*
X17000Y-12545D03*
X17250Y-12545D03*
X17500Y-12545D03*
X17750Y-12545D03*
X17750Y-10455D03*
X17500Y-10455D03*
X17250Y-10455D03*
X17000Y-10455D03*
X16750Y-10455D03*
X16500Y-10455D03*
X16250Y-10455D03*
X16000Y-10455D03*
X15750Y-10455D03*
X15500Y-10455D03*
X15250Y-10455D03*
X15000Y-10455D03*
X14750Y-10455D03*
X14500Y-10455D03*
G54D13*
X16762Y-07624D03*
X16506Y-07624D03*
X16250Y-07624D03*
X15994Y-07624D03*
X15738Y-07624D03*
G54D14*
X17726Y-06571D03*
G54D15*
X16703Y-06571D03*
X15797Y-06571D03*
G54D14*
X14774Y-06571D03*
G54D16*
X15200Y-11500D03*
X17100Y-09800D03*
X16400Y-13400D03*
X15100Y-08600D03*
X15900Y-13800D03*
X17000Y-11400D03*
X18300Y-10900D03*
X16300Y-14300D03*
X16500Y-09600D03*
X17000Y-07500D03*
G54D17*
X15250Y-11550D02*
X15250Y-12545D01*
X15200Y-11500D02*
X15250Y-11550D01*
X17000Y-10455D02*
X17000Y-09900D01*
X17000Y-09900D02*
X17100Y-09800D01*
X17000Y-10455D02*
X17000Y-10800D01*
X16300Y-11500D02*
X16000Y-11500D01*
X17000Y-10800D02*
X16300Y-11500D01*
X16000Y-12545D02*
X16000Y-13000D01*
X16000Y-13000D02*
X16400Y-13400D01*
X16000Y-12545D02*
X16000Y-11500D01*
X16000Y-11500D02*
X16000Y-11300D01*
X16250Y-11050D02*
X16250Y-10455D01*
X16000Y-11300D02*
X16250Y-11050D01*
X15738Y-07624D02*
X15738Y-08062D01*
X15200Y-08600D02*
X15100Y-08600D01*
X15738Y-08062D02*
X15200Y-08600D01*
X15000Y-09900D02*
X15000Y-08700D01*
X15000Y-08700D02*
X15100Y-08600D01*
X15200Y-09900D02*
X16200Y-09900D01*
X16250Y-09950D02*
X16250Y-10455D01*
X16200Y-09900D02*
X16250Y-09950D01*
X15000Y-10455D02*
X15000Y-09900D01*
X15250Y-09950D02*
X15250Y-10455D01*
X15200Y-09900D02*
X15250Y-09950D01*
X15000Y-09900D02*
X15200Y-09900D01*
X15500Y-12545D02*
X15500Y-13400D01*
X15500Y-13400D02*
X15900Y-13800D01*
X17250Y-11650D02*
X17250Y-12545D01*
X17000Y-11400D02*
X17250Y-11650D01*
X16250Y-07624D02*
X16250Y-07150D01*
X17750Y-10150D02*
X17750Y-10455D01*
X18200Y-09700D02*
X17750Y-10150D01*
X18200Y-07100D02*
X18200Y-09700D01*
X16300Y-07100D02*
X18200Y-07100D01*
X16250Y-07150D02*
X16300Y-07100D01*
X17250Y-11150D02*
X17250Y-10455D01*
X17300Y-11200D02*
X17250Y-11150D01*
X18000Y-11200D02*
X17300Y-11200D01*
X18300Y-10900D02*
X18000Y-11200D01*
X16506Y-07624D02*
X16506Y-08756D01*
X17500Y-09750D02*
X17500Y-10455D01*
X16506Y-08756D02*
X17500Y-09750D01*
X14500Y-12545D02*
X14500Y-14200D01*
X14600Y-14300D02*
X16300Y-14300D01*
X14500Y-14200D02*
X14600Y-14300D01*
X16500Y-09600D02*
X16500Y-10455D01*
X16762Y-07624D02*
X16876Y-07624D01*
X16876Y-07624D02*
X17000Y-07500D01*
G54D10*
G36*
X18450Y-14700D02*
X18450Y-11299D01*
X18384Y-11327D01*
X18281Y-11327D01*
X18204Y-11404D01*
X18111Y-11467D01*
X18000Y-11489D01*
X17483Y-11488D01*
X17517Y-11539D01*
X17539Y-11650D01*
X17539Y-11981D01*
X17620Y-11981D01*
X17625Y-11983D01*
X17631Y-11981D01*
X17870Y-11981D01*
X17961Y-12019D01*
X18031Y-12089D01*
X18069Y-12181D01*
X18069Y-12910D01*
X18031Y-13001D01*
X17961Y-13071D01*
X17869Y-13109D01*
X17630Y-13109D01*
X17624Y-13106D01*
X17619Y-13109D01*
X17380Y-13109D01*
X17374Y-13106D01*
X17369Y-13109D01*
X17130Y-13109D01*
X17124Y-13106D01*
X17119Y-13109D01*
X16880Y-13109D01*
X16874Y-13106D01*
X16869Y-13109D01*
X16630Y-13109D01*
X16624Y-13106D01*
X16619Y-13109D01*
X16380Y-13109D01*
X16374Y-13106D01*
X16369Y-13109D01*
X16130Y-13109D01*
X16124Y-13106D01*
X16119Y-13109D01*
X16097Y-13110D01*
X16071Y-13084D01*
X16039Y-13071D01*
X15999Y-13031D01*
X15961Y-13071D01*
X15928Y-13084D01*
X15903Y-13110D01*
X15881Y-13109D01*
X15874Y-13106D01*
X15869Y-13109D01*
X15789Y-13109D01*
X15789Y-13280D01*
X15881Y-13373D01*
X15986Y-13373D01*
X16143Y-13439D01*
X16262Y-13559D01*
X16327Y-13716D01*
X16327Y-13873D01*
X16386Y-13873D01*
X16543Y-13939D01*
X16662Y-14059D01*
X16727Y-14216D01*
X16727Y-14386D01*
X16661Y-14543D01*
X16541Y-14662D01*
X16449Y-14700D01*
X18450Y-14700D01*
X18450Y-14700D01*
G37*
G54D18*
X18450Y-14700D02*
X18450Y-11299D01*
X18384Y-11327D01*
X18281Y-11327D01*
X18204Y-11404D01*
X18111Y-11467D01*
X18000Y-11489D01*
X17483Y-11488D01*
X17517Y-11539D01*
X17539Y-11650D01*
X17539Y-11981D01*
X17620Y-11981D01*
X17625Y-11983D01*
X17631Y-11981D01*
X17870Y-11981D01*
X17961Y-12019D01*
X18031Y-12089D01*
X18069Y-12181D01*
X18069Y-12910D01*
X18031Y-13001D01*
X17961Y-13071D01*
X17869Y-13109D01*
X17630Y-13109D01*
X17624Y-13106D01*
X17619Y-13109D01*
X17380Y-13109D01*
X17374Y-13106D01*
X17369Y-13109D01*
X17130Y-13109D01*
X17124Y-13106D01*
X17119Y-13109D01*
X16880Y-13109D01*
X16874Y-13106D01*
X16869Y-13109D01*
X16630Y-13109D01*
X16624Y-13106D01*
X16619Y-13109D01*
X16380Y-13109D01*
X16374Y-13106D01*
X16369Y-13109D01*
X16130Y-13109D01*
X16124Y-13106D01*
X16119Y-13109D01*
X16097Y-13110D01*
X16071Y-13084D01*
X16039Y-13071D01*
X15999Y-13031D01*
X15961Y-13071D01*
X15928Y-13084D01*
X15903Y-13110D01*
X15881Y-13109D01*
X15874Y-13106D01*
X15869Y-13109D01*
X15789Y-13109D01*
X15789Y-13280D01*
X15881Y-13373D01*
X15986Y-13373D01*
X16143Y-13439D01*
X16262Y-13559D01*
X16327Y-13716D01*
X16327Y-13873D01*
X16386Y-13873D01*
X16543Y-13939D01*
X16662Y-14059D01*
X16727Y-14216D01*
X16727Y-14386D01*
X16661Y-14543D01*
X16541Y-14662D01*
X16449Y-14700D01*
X18450Y-14700D01*
G54D10*
G36*
X16149Y-14700D02*
X16057Y-14661D01*
X15985Y-14589D01*
X14600Y-14589D01*
X14489Y-14567D01*
X14395Y-14504D01*
X14296Y-14404D01*
X14233Y-14311D01*
X14211Y-14200D01*
X14211Y-12981D01*
X14181Y-12909D01*
X14181Y-12180D01*
X14219Y-12089D01*
X14289Y-12019D01*
X14381Y-11981D01*
X14620Y-11981D01*
X14625Y-11983D01*
X14630Y-11981D01*
X14870Y-11981D01*
X14875Y-11983D01*
X14881Y-11981D01*
X14961Y-11981D01*
X14961Y-11862D01*
X14957Y-11861D01*
X14838Y-11741D01*
X14773Y-11584D01*
X14773Y-11414D01*
X14839Y-11257D01*
X14959Y-11138D01*
X15116Y-11073D01*
X15286Y-11073D01*
X15443Y-11139D01*
X15562Y-11259D01*
X15627Y-11416D01*
X15627Y-11586D01*
X15561Y-11743D01*
X15539Y-11764D01*
X15539Y-11981D01*
X15620Y-11981D01*
X15625Y-11983D01*
X15631Y-11981D01*
X15870Y-11981D01*
X15875Y-11983D01*
X15881Y-11981D01*
X15903Y-11980D01*
X15928Y-12005D01*
X15961Y-12019D01*
X15999Y-12057D01*
X16039Y-12019D01*
X16071Y-12005D01*
X16097Y-11980D01*
X16119Y-11981D01*
X16125Y-11983D01*
X16131Y-11981D01*
X16370Y-11981D01*
X16375Y-11983D01*
X16381Y-11981D01*
X16620Y-11981D01*
X16625Y-11983D01*
X16631Y-11981D01*
X16870Y-11981D01*
X16875Y-11983D01*
X16881Y-11981D01*
X16961Y-11981D01*
X16961Y-11827D01*
X16914Y-11827D01*
X16757Y-11761D01*
X16638Y-11641D01*
X16573Y-11484D01*
X16573Y-11314D01*
X16639Y-11157D01*
X16759Y-11038D01*
X16804Y-11019D01*
X16630Y-11019D01*
X16624Y-11016D01*
X16619Y-11019D01*
X16380Y-11019D01*
X16374Y-11016D01*
X16369Y-11019D01*
X16347Y-11020D01*
X16321Y-10994D01*
X16289Y-10981D01*
X16249Y-10941D01*
X16211Y-10981D01*
X16178Y-10994D01*
X16153Y-11020D01*
X16131Y-11019D01*
X16124Y-11016D01*
X16119Y-11019D01*
X15880Y-11019D01*
X15874Y-11016D01*
X15869Y-11019D01*
X15630Y-11019D01*
X15624Y-11016D01*
X15619Y-11019D01*
X15380Y-11019D01*
X15374Y-11016D01*
X15369Y-11019D01*
X15347Y-11020D01*
X15321Y-10994D01*
X15289Y-10981D01*
X15249Y-10941D01*
X15211Y-10981D01*
X15178Y-10994D01*
X15153Y-11020D01*
X15131Y-11019D01*
X15125Y-11016D01*
X15119Y-11019D01*
X15097Y-11020D01*
X15071Y-10994D01*
X15039Y-10981D01*
X14999Y-10941D01*
X14961Y-10981D01*
X14928Y-10994D01*
X14903Y-11020D01*
X14881Y-11019D01*
X14875Y-11016D01*
X14869Y-11019D01*
X14630Y-11019D01*
X14624Y-11016D01*
X14619Y-11019D01*
X14380Y-11019D01*
X14289Y-10981D01*
X14219Y-10911D01*
X14181Y-10819D01*
X14181Y-10090D01*
X14219Y-09999D01*
X14289Y-09929D01*
X14381Y-09891D01*
X14620Y-09891D01*
X14625Y-09893D01*
X14631Y-09891D01*
X14662Y-09891D01*
X14662Y-07195D01*
X14272Y-07194D01*
X14180Y-07156D01*
X14110Y-07086D01*
X14072Y-06995D01*
X14072Y-06896D01*
X14071Y-06683D01*
X14133Y-06621D01*
X14724Y-06621D01*
X14724Y-07133D01*
X14662Y-07195D01*
X14662Y-09891D01*
X14870Y-09891D01*
X14875Y-09893D01*
X14881Y-09891D01*
X14903Y-09890D01*
X14928Y-09915D01*
X14961Y-09929D01*
X14999Y-09967D01*
X15039Y-09929D01*
X15071Y-09915D01*
X15097Y-09890D01*
X15119Y-09891D01*
X15124Y-09893D01*
X15131Y-09891D01*
X15153Y-09890D01*
X15178Y-09915D01*
X15211Y-09929D01*
X15249Y-09968D01*
X15289Y-09929D01*
X15321Y-09915D01*
X15347Y-09890D01*
X15369Y-09891D01*
X15374Y-09893D01*
X15381Y-09891D01*
X15620Y-09891D01*
X15625Y-09893D01*
X15631Y-09891D01*
X15870Y-09891D01*
X15875Y-09893D01*
X15881Y-09891D01*
X16120Y-09891D01*
X16125Y-09893D01*
X16131Y-09891D01*
X16153Y-09890D01*
X16178Y-09915D01*
X16211Y-09929D01*
X16211Y-09914D01*
X16138Y-09841D01*
X16073Y-09684D01*
X16073Y-09514D01*
X16139Y-09357D01*
X16259Y-09238D01*
X16416Y-09173D01*
X16514Y-09173D01*
X16302Y-08960D01*
X16239Y-08867D01*
X16217Y-08756D01*
X16217Y-08138D01*
X16122Y-08138D01*
X16121Y-08137D01*
X16121Y-08138D01*
X15866Y-08138D01*
X15865Y-08137D01*
X15865Y-08138D01*
X15839Y-08139D01*
X15817Y-08117D01*
X15775Y-08100D01*
X15705Y-08030D01*
X15699Y-08015D01*
X15699Y-08077D01*
X15637Y-08139D01*
X15611Y-08138D01*
X15519Y-08100D01*
X15449Y-08030D01*
X15411Y-07939D01*
X15411Y-07840D01*
X15410Y-07736D01*
X15472Y-07674D01*
X15667Y-07674D01*
X15667Y-07574D01*
X15472Y-07574D01*
X15410Y-07512D01*
X15411Y-07408D01*
X15411Y-07309D01*
X15449Y-07218D01*
X15472Y-07194D01*
X15394Y-07194D01*
X15334Y-07169D01*
X15276Y-07194D01*
X14886Y-07195D01*
X14824Y-07133D01*
X14824Y-06621D01*
X15747Y-06621D01*
X15847Y-06621D01*
X16653Y-06621D01*
X16753Y-06621D01*
X17676Y-06621D01*
X17776Y-06621D01*
X18367Y-06621D01*
X18429Y-06683D01*
X18428Y-06896D01*
X18428Y-06930D01*
X18450Y-06963D01*
X18450Y-06300D01*
X18428Y-06300D01*
X18429Y-06459D01*
X18367Y-06521D01*
X17776Y-06521D01*
X17676Y-06521D01*
X16753Y-06521D01*
X16653Y-06521D01*
X15847Y-06521D01*
X15747Y-06521D01*
X14824Y-06521D01*
X14724Y-06521D01*
X14133Y-06521D01*
X14071Y-06459D01*
X14071Y-06300D01*
X14050Y-06300D01*
X14050Y-14700D01*
X16149Y-14700D01*
X16149Y-14700D01*
G37*
G54D18*
X16149Y-14700D02*
X16057Y-14661D01*
X15985Y-14589D01*
X14600Y-14589D01*
X14489Y-14567D01*
X14395Y-14504D01*
X14296Y-14404D01*
X14233Y-14311D01*
X14211Y-14200D01*
X14211Y-12981D01*
X14181Y-12909D01*
X14181Y-12180D01*
X14219Y-12089D01*
X14289Y-12019D01*
X14381Y-11981D01*
X14620Y-11981D01*
X14625Y-11983D01*
X14630Y-11981D01*
X14870Y-11981D01*
X14875Y-11983D01*
X14881Y-11981D01*
X14961Y-11981D01*
X14961Y-11862D01*
X14957Y-11861D01*
X14838Y-11741D01*
X14773Y-11584D01*
X14773Y-11414D01*
X14839Y-11257D01*
X14959Y-11138D01*
X15116Y-11073D01*
X15286Y-11073D01*
X15443Y-11139D01*
X15562Y-11259D01*
X15627Y-11416D01*
X15627Y-11586D01*
X15561Y-11743D01*
X15539Y-11764D01*
X15539Y-11981D01*
X15620Y-11981D01*
X15625Y-11983D01*
X15631Y-11981D01*
X15870Y-11981D01*
X15875Y-11983D01*
X15881Y-11981D01*
X15903Y-11980D01*
X15928Y-12005D01*
X15961Y-12019D01*
X15999Y-12057D01*
X16039Y-12019D01*
X16071Y-12005D01*
X16097Y-11980D01*
X16119Y-11981D01*
X16125Y-11983D01*
X16131Y-11981D01*
X16370Y-11981D01*
X16375Y-11983D01*
X16381Y-11981D01*
X16620Y-11981D01*
X16625Y-11983D01*
X16631Y-11981D01*
X16870Y-11981D01*
X16875Y-11983D01*
X16881Y-11981D01*
X16961Y-11981D01*
X16961Y-11827D01*
X16914Y-11827D01*
X16757Y-11761D01*
X16638Y-11641D01*
X16573Y-11484D01*
X16573Y-11314D01*
X16639Y-11157D01*
X16759Y-11038D01*
X16804Y-11019D01*
X16630Y-11019D01*
X16624Y-11016D01*
X16619Y-11019D01*
X16380Y-11019D01*
X16374Y-11016D01*
X16369Y-11019D01*
X16347Y-11020D01*
X16321Y-10994D01*
X16289Y-10981D01*
X16249Y-10941D01*
X16211Y-10981D01*
X16178Y-10994D01*
X16153Y-11020D01*
X16131Y-11019D01*
X16124Y-11016D01*
X16119Y-11019D01*
X15880Y-11019D01*
X15874Y-11016D01*
X15869Y-11019D01*
X15630Y-11019D01*
X15624Y-11016D01*
X15619Y-11019D01*
X15380Y-11019D01*
X15374Y-11016D01*
X15369Y-11019D01*
X15347Y-11020D01*
X15321Y-10994D01*
X15289Y-10981D01*
X15249Y-10941D01*
X15211Y-10981D01*
X15178Y-10994D01*
X15153Y-11020D01*
X15131Y-11019D01*
X15125Y-11016D01*
X15119Y-11019D01*
X15097Y-11020D01*
X15071Y-10994D01*
X15039Y-10981D01*
X14999Y-10941D01*
X14961Y-10981D01*
X14928Y-10994D01*
X14903Y-11020D01*
X14881Y-11019D01*
X14875Y-11016D01*
X14869Y-11019D01*
X14630Y-11019D01*
X14624Y-11016D01*
X14619Y-11019D01*
X14380Y-11019D01*
X14289Y-10981D01*
X14219Y-10911D01*
X14181Y-10819D01*
X14181Y-10090D01*
X14219Y-09999D01*
X14289Y-09929D01*
X14381Y-09891D01*
X14620Y-09891D01*
X14625Y-09893D01*
X14631Y-09891D01*
X14662Y-09891D01*
X14662Y-07195D01*
X14272Y-07194D01*
X14180Y-07156D01*
X14110Y-07086D01*
X14072Y-06995D01*
X14072Y-06896D01*
X14071Y-06683D01*
X14133Y-06621D01*
X14724Y-06621D01*
X14724Y-07133D01*
X14662Y-07195D01*
X14662Y-09891D01*
X14870Y-09891D01*
X14875Y-09893D01*
X14881Y-09891D01*
X14903Y-09890D01*
X14928Y-09915D01*
X14961Y-09929D01*
X14999Y-09967D01*
X15039Y-09929D01*
X15071Y-09915D01*
X15097Y-09890D01*
X15119Y-09891D01*
X15124Y-09893D01*
X15131Y-09891D01*
X15153Y-09890D01*
X15178Y-09915D01*
X15211Y-09929D01*
X15249Y-09968D01*
X15289Y-09929D01*
X15321Y-09915D01*
X15347Y-09890D01*
X15369Y-09891D01*
X15374Y-09893D01*
X15381Y-09891D01*
X15620Y-09891D01*
X15625Y-09893D01*
X15631Y-09891D01*
X15870Y-09891D01*
X15875Y-09893D01*
X15881Y-09891D01*
X16120Y-09891D01*
X16125Y-09893D01*
X16131Y-09891D01*
X16153Y-09890D01*
X16178Y-09915D01*
X16211Y-09929D01*
X16211Y-09914D01*
X16138Y-09841D01*
X16073Y-09684D01*
X16073Y-09514D01*
X16139Y-09357D01*
X16259Y-09238D01*
X16416Y-09173D01*
X16514Y-09173D01*
X16302Y-08960D01*
X16239Y-08867D01*
X16217Y-08756D01*
X16217Y-08138D01*
X16122Y-08138D01*
X16121Y-08137D01*
X16121Y-08138D01*
X15866Y-08138D01*
X15865Y-08137D01*
X15865Y-08138D01*
X15839Y-08139D01*
X15817Y-08117D01*
X15775Y-08100D01*
X15705Y-08030D01*
X15699Y-08015D01*
X15699Y-08077D01*
X15637Y-08139D01*
X15611Y-08138D01*
X15519Y-08100D01*
X15449Y-08030D01*
X15411Y-07939D01*
X15411Y-07840D01*
X15410Y-07736D01*
X15472Y-07674D01*
X15667Y-07674D01*
X15667Y-07574D01*
X15472Y-07574D01*
X15410Y-07512D01*
X15411Y-07408D01*
X15411Y-07309D01*
X15449Y-07218D01*
X15472Y-07194D01*
X15394Y-07194D01*
X15334Y-07169D01*
X15276Y-07194D01*
X14886Y-07195D01*
X14824Y-07133D01*
X14824Y-06621D01*
X15747Y-06621D01*
X15847Y-06621D01*
X16653Y-06621D01*
X16753Y-06621D01*
X17676Y-06621D01*
X17776Y-06621D01*
X18367Y-06621D01*
X18429Y-06683D01*
X18428Y-06896D01*
X18428Y-06930D01*
X18450Y-06963D01*
X18450Y-06300D01*
X18428Y-06300D01*
X18429Y-06459D01*
X18367Y-06521D01*
X17776Y-06521D01*
X17676Y-06521D01*
X16753Y-06521D01*
X16653Y-06521D01*
X15847Y-06521D01*
X15747Y-06521D01*
X14824Y-06521D01*
X14724Y-06521D01*
X14133Y-06521D01*
X14071Y-06459D01*
X14071Y-06300D01*
X14050Y-06300D01*
X14050Y-14700D01*
X16149Y-14700D01*
G54D10*
G36*
X16999Y-09967D02*
X17039Y-09929D01*
X17071Y-09915D01*
X17097Y-09890D01*
X17119Y-09891D01*
X17124Y-09893D01*
X17131Y-09891D01*
X17211Y-09891D01*
X17211Y-09869D01*
X16927Y-09585D01*
X16927Y-09686D01*
X16861Y-09843D01*
X16812Y-09891D01*
X16870Y-09891D01*
X16875Y-09893D01*
X16881Y-09891D01*
X16903Y-09890D01*
X16928Y-09915D01*
X16961Y-09929D01*
X16999Y-09967D01*
X16999Y-09967D01*
G37*
G54D18*
X16999Y-09967D02*
X17039Y-09929D01*
X17071Y-09915D01*
X17097Y-09890D01*
X17119Y-09891D01*
X17124Y-09893D01*
X17131Y-09891D01*
X17211Y-09891D01*
X17211Y-09869D01*
X16927Y-09585D01*
X16927Y-09686D01*
X16861Y-09843D01*
X16812Y-09891D01*
X16870Y-09891D01*
X16875Y-09893D01*
X16881Y-09891D01*
X16903Y-09890D01*
X16928Y-09915D01*
X16961Y-09929D01*
X16999Y-09967D01*
M02*
