G04 (created by PCBNEW-RS274X (2010-00-09 BZR 23xx)-stable) date Вск 19 Июн 2011 21:32:10*
G01*
G70*
G90*
%MOIN*%
G04 Gerber Fmt 3.4, Leading zero omitted, Abs format*
%FSLAX34Y34*%
G04 APERTURE LIST*
%ADD10C,0.006000*%
%ADD11C,0.015000*%
%ADD12R,0.039400X0.035400*%
%ADD13R,0.035400X0.039400*%
%ADD14R,0.098400X0.076800*%
%ADD15R,0.026000X0.016000*%
%ADD16R,0.035400X0.452800*%
%ADD17R,0.035400X0.354300*%
G04 APERTURE END LIST*
G54D10*
G54D11*
X18750Y-06000D02*
X13750Y-06000D01*
X18750Y-15000D02*
X18750Y-06000D01*
X17500Y-15000D02*
X18750Y-15000D01*
X17500Y-19750D02*
X17500Y-15000D01*
X15500Y-19750D02*
X17500Y-19750D01*
X15500Y-18750D02*
X15500Y-19750D01*
X15000Y-18750D02*
X15500Y-18750D01*
X15000Y-15000D02*
X15000Y-18750D01*
X13750Y-15000D02*
X15000Y-15000D01*
X13750Y-06000D02*
X13750Y-15000D01*
G54D12*
X16750Y-09296D03*
X16750Y-08704D03*
X14500Y-09296D03*
X14500Y-08704D03*
X17750Y-08704D03*
X17750Y-09296D03*
X15750Y-08704D03*
X15750Y-09296D03*
G54D13*
X17546Y-07500D03*
X16954Y-07500D03*
G54D14*
X15000Y-12150D03*
X15000Y-13350D03*
X17500Y-13350D03*
X17500Y-12150D03*
G54D15*
X16600Y-10340D03*
X16600Y-10860D03*
X16600Y-10600D03*
X15800Y-10860D03*
X15800Y-10340D03*
G54D16*
X17140Y-17362D03*
X16510Y-17362D03*
X15880Y-17362D03*
G54D17*
X15250Y-16870D03*
M02*
