G04 (created by PCBNEW-RS274X (2010-00-09 BZR 23xx)-stable) date Сбт 18 Июн 2011 17:14:01*
G01*
G70*
G90*
%MOIN*%
G04 Gerber Fmt 3.4, Leading zero omitted, Abs format*
%FSLAX34Y34*%
G04 APERTURE LIST*
%ADD10C,0.006000*%
%ADD11C,0.015000*%
%ADD12R,0.034000X0.083000*%
G04 APERTURE END LIST*
G54D10*
G54D11*
X18750Y-06000D02*
X13750Y-06000D01*
X18750Y-15000D02*
X18750Y-06000D01*
X17500Y-15000D02*
X18750Y-15000D01*
X17500Y-19750D02*
X17500Y-15000D01*
X15500Y-19750D02*
X17500Y-19750D01*
X15500Y-18750D02*
X15500Y-19750D01*
X15000Y-18750D02*
X15500Y-18750D01*
X15000Y-15000D02*
X15000Y-18750D01*
X13750Y-15000D02*
X15000Y-15000D01*
X13750Y-06000D02*
X13750Y-15000D01*
G54D12*
X14500Y-12545D03*
X14750Y-12545D03*
X15000Y-12545D03*
X15250Y-12545D03*
X15500Y-12545D03*
X15750Y-12545D03*
X16000Y-12545D03*
X16250Y-12545D03*
X16500Y-12545D03*
X16750Y-12545D03*
X17000Y-12545D03*
X17250Y-12545D03*
X17500Y-12545D03*
X17750Y-12545D03*
X17750Y-10455D03*
X17500Y-10455D03*
X17250Y-10455D03*
X17000Y-10455D03*
X16750Y-10455D03*
X16500Y-10455D03*
X16250Y-10455D03*
X16000Y-10455D03*
X15750Y-10455D03*
X15500Y-10455D03*
X15250Y-10455D03*
X15000Y-10455D03*
X14750Y-10455D03*
X14500Y-10455D03*
M02*
