G04 (created by PCBNEW-RS274X (2010-00-09 BZR 23xx)-stable) date Вск 19 Июн 2011 21:32:10*
G01*
G70*
G90*
%MOIN*%
G04 Gerber Fmt 3.4, Leading zero omitted, Abs format*
%FSLAX34Y34*%
G04 APERTURE LIST*
%ADD10C,0.006000*%
%ADD11C,0.015000*%
%ADD12R,0.039400X0.035400*%
%ADD13R,0.035400X0.039400*%
%ADD14R,0.098400X0.076800*%
%ADD15R,0.026000X0.016000*%
%ADD16R,0.035400X0.452800*%
%ADD17R,0.035400X0.354300*%
%ADD18C,0.035400*%
%ADD19C,0.007900*%
%ADD20C,0.010000*%
G04 APERTURE END LIST*
G54D10*
G54D11*
X18750Y-06000D02*
X13750Y-06000D01*
X18750Y-15000D02*
X18750Y-06000D01*
X17500Y-15000D02*
X18750Y-15000D01*
X17500Y-19750D02*
X17500Y-15000D01*
X15500Y-19750D02*
X17500Y-19750D01*
X15500Y-18750D02*
X15500Y-19750D01*
X15000Y-18750D02*
X15500Y-18750D01*
X15000Y-15000D02*
X15000Y-18750D01*
X13750Y-15000D02*
X15000Y-15000D01*
X13750Y-06000D02*
X13750Y-15000D01*
G54D12*
X16750Y-09296D03*
X16750Y-08704D03*
X14500Y-09296D03*
X14500Y-08704D03*
X17750Y-08704D03*
X17750Y-09296D03*
X15750Y-08704D03*
X15750Y-09296D03*
G54D13*
X17546Y-07500D03*
X16954Y-07500D03*
G54D14*
X15000Y-12150D03*
X15000Y-13350D03*
X17500Y-13350D03*
X17500Y-12150D03*
G54D15*
X16600Y-10340D03*
X16600Y-10860D03*
X16600Y-10600D03*
X15800Y-10860D03*
X15800Y-10340D03*
G54D16*
X17140Y-17362D03*
X16510Y-17362D03*
X15880Y-17362D03*
G54D17*
X15250Y-16870D03*
G54D18*
X15200Y-11500D03*
X17100Y-09800D03*
X16400Y-13400D03*
X15100Y-08600D03*
X15900Y-13800D03*
X17000Y-11400D03*
X18300Y-10900D03*
X16300Y-14300D03*
X16500Y-09600D03*
X17000Y-07500D03*
G54D19*
X15000Y-12150D02*
X15000Y-11700D01*
X15000Y-11700D02*
X15200Y-11500D01*
X15000Y-12150D02*
X15000Y-10700D01*
X15000Y-10700D02*
X15360Y-10340D01*
X14500Y-09296D02*
X14500Y-09500D01*
X15340Y-10340D02*
X15360Y-10340D01*
X15360Y-10340D02*
X15800Y-10340D01*
X14500Y-09500D02*
X15340Y-10340D01*
X17546Y-07500D02*
X17546Y-07646D01*
X17750Y-07850D02*
X17750Y-08704D01*
X17546Y-07646D02*
X17750Y-07850D01*
X16800Y-10600D02*
X16600Y-10600D01*
X17000Y-10400D02*
X16800Y-10600D01*
X17000Y-09900D02*
X17000Y-10400D01*
X17100Y-09800D02*
X17000Y-09900D01*
X16450Y-13350D02*
X17500Y-13350D01*
X16400Y-13400D02*
X16450Y-13350D01*
X15000Y-13350D02*
X17500Y-13350D01*
X15000Y-13350D02*
X15000Y-13800D01*
X15880Y-14680D02*
X15880Y-17362D01*
X15000Y-13800D02*
X15880Y-14680D01*
X14996Y-08704D02*
X14500Y-08704D01*
X15100Y-08600D02*
X14996Y-08704D01*
X14500Y-08704D02*
X15750Y-08704D01*
X17140Y-14440D02*
X17140Y-17362D01*
X16600Y-13900D02*
X17140Y-14440D01*
X16000Y-13900D02*
X16600Y-13900D01*
X15900Y-13800D02*
X16000Y-13900D01*
X16600Y-10860D02*
X16860Y-10860D01*
X17000Y-11000D02*
X17000Y-11400D01*
X16860Y-10860D02*
X17000Y-11000D01*
X17750Y-09296D02*
X17750Y-10350D01*
X17750Y-10350D02*
X18300Y-10900D01*
X16510Y-14510D02*
X16510Y-17362D01*
X16300Y-14300D02*
X16510Y-14510D01*
X17500Y-12150D02*
X17050Y-12150D01*
X16240Y-10340D02*
X16600Y-10340D01*
X16200Y-10400D02*
X16240Y-10340D01*
X16200Y-11300D02*
X16200Y-10400D01*
X17050Y-12150D02*
X16200Y-11300D01*
X16750Y-09296D02*
X16750Y-09350D01*
X16750Y-09350D02*
X16500Y-09600D01*
X16750Y-09296D02*
X16750Y-10190D01*
X16750Y-10190D02*
X16600Y-10340D01*
X16750Y-09296D02*
X15750Y-09296D01*
X16796Y-08704D02*
X16750Y-08704D01*
X17000Y-08500D02*
X16796Y-08704D01*
X17000Y-07500D02*
X17000Y-08500D01*
G54D10*
G36*
X18450Y-14700D02*
X18450Y-11299D01*
X18384Y-11327D01*
X18214Y-11327D01*
X18057Y-11261D01*
X17938Y-11141D01*
X17873Y-10984D01*
X17873Y-10881D01*
X17546Y-10554D01*
X17483Y-10461D01*
X17461Y-10350D01*
X17461Y-09704D01*
X17412Y-09684D01*
X17342Y-09614D01*
X17304Y-09522D01*
X17304Y-09069D01*
X17332Y-08999D01*
X17304Y-08930D01*
X17303Y-08816D01*
X17365Y-08754D01*
X17365Y-08654D01*
X17303Y-08592D01*
X17304Y-08478D01*
X17342Y-08386D01*
X17412Y-08316D01*
X17503Y-08278D01*
X17602Y-08278D01*
X17638Y-08277D01*
X17658Y-08297D01*
X17658Y-07947D01*
X17596Y-07885D01*
X17596Y-07550D01*
X17911Y-07550D01*
X17973Y-07612D01*
X17972Y-07648D01*
X17972Y-07747D01*
X17934Y-07838D01*
X17864Y-07908D01*
X17772Y-07946D01*
X17658Y-07947D01*
X17658Y-08297D01*
X17700Y-08339D01*
X17700Y-08654D01*
X17365Y-08654D01*
X17365Y-08754D01*
X17700Y-08754D01*
X17800Y-08754D01*
X17800Y-08654D01*
X17800Y-08339D01*
X17862Y-08277D01*
X17898Y-08278D01*
X17997Y-08278D01*
X18088Y-08316D01*
X18158Y-08386D01*
X18196Y-08478D01*
X18197Y-08592D01*
X18135Y-08654D01*
X17800Y-08654D01*
X17800Y-08754D01*
X18135Y-08754D01*
X18197Y-08816D01*
X18196Y-08930D01*
X18167Y-08999D01*
X18196Y-09070D01*
X18196Y-09523D01*
X18158Y-09614D01*
X18088Y-09684D01*
X18039Y-09704D01*
X18039Y-10230D01*
X18281Y-10473D01*
X18386Y-10473D01*
X18450Y-10499D01*
X18450Y-07300D01*
X17972Y-07300D01*
X17972Y-07352D01*
X17973Y-07388D01*
X17911Y-07450D01*
X17596Y-07450D01*
X17496Y-07450D01*
X17496Y-07550D01*
X17496Y-07885D01*
X17434Y-07947D01*
X17320Y-07946D01*
X17289Y-07933D01*
X17289Y-08500D01*
X17267Y-08611D01*
X17204Y-08705D01*
X17196Y-08712D01*
X17196Y-08931D01*
X17167Y-09000D01*
X17196Y-09070D01*
X17196Y-09523D01*
X17158Y-09614D01*
X17088Y-09684D01*
X17039Y-09704D01*
X17039Y-10190D01*
X17017Y-10301D01*
X16979Y-10357D01*
X16979Y-10470D01*
X16978Y-10470D01*
X16979Y-10471D01*
X16980Y-10498D01*
X16958Y-10519D01*
X16941Y-10561D01*
X16919Y-10582D01*
X16971Y-10593D01*
X17064Y-10656D01*
X17204Y-10795D01*
X17267Y-10889D01*
X17289Y-11000D01*
X17289Y-11085D01*
X17362Y-11159D01*
X17427Y-11316D01*
X17427Y-11486D01*
X17413Y-11517D01*
X18042Y-11517D01*
X18133Y-11555D01*
X18203Y-11625D01*
X18241Y-11717D01*
X18241Y-12584D01*
X18203Y-12675D01*
X18133Y-12745D01*
X18120Y-12749D01*
X18133Y-12755D01*
X18203Y-12825D01*
X18241Y-12917D01*
X18242Y-13238D01*
X18180Y-13300D01*
X17550Y-13300D01*
X17450Y-13300D01*
X16820Y-13300D01*
X16758Y-13238D01*
X16759Y-12917D01*
X16797Y-12825D01*
X16867Y-12755D01*
X16878Y-12750D01*
X16867Y-12745D01*
X16797Y-12675D01*
X16759Y-12583D01*
X16759Y-12267D01*
X15996Y-11504D01*
X15933Y-11411D01*
X15911Y-11300D01*
X15911Y-11189D01*
X15620Y-11189D01*
X15529Y-11151D01*
X15459Y-11081D01*
X15421Y-10989D01*
X15421Y-10730D01*
X15451Y-10656D01*
X15289Y-10819D01*
X15289Y-11074D01*
X15443Y-11139D01*
X15562Y-11259D01*
X15627Y-11416D01*
X15627Y-11552D01*
X15633Y-11555D01*
X15703Y-11625D01*
X15741Y-11717D01*
X15741Y-12584D01*
X15703Y-12675D01*
X15633Y-12745D01*
X15620Y-12749D01*
X15633Y-12755D01*
X15703Y-12825D01*
X15741Y-12917D01*
X15742Y-13238D01*
X15680Y-13300D01*
X15050Y-13300D01*
X14950Y-13300D01*
X14320Y-13300D01*
X14258Y-13238D01*
X14259Y-12917D01*
X14297Y-12825D01*
X14367Y-12755D01*
X14378Y-12750D01*
X14367Y-12745D01*
X14297Y-12675D01*
X14259Y-12583D01*
X14259Y-11716D01*
X14297Y-11625D01*
X14367Y-11555D01*
X14459Y-11517D01*
X14711Y-11517D01*
X14711Y-10700D01*
X14733Y-10589D01*
X14796Y-10496D01*
X14941Y-10350D01*
X14313Y-09722D01*
X14253Y-09722D01*
X14162Y-09684D01*
X14092Y-09614D01*
X14054Y-09522D01*
X14054Y-09069D01*
X14082Y-08999D01*
X14054Y-08930D01*
X14053Y-08816D01*
X14115Y-08754D01*
X14115Y-08654D01*
X14053Y-08592D01*
X14054Y-08478D01*
X14092Y-08386D01*
X14162Y-08316D01*
X14253Y-08278D01*
X14352Y-08278D01*
X14388Y-08277D01*
X14450Y-08339D01*
X14450Y-08654D01*
X14115Y-08654D01*
X14115Y-08754D01*
X14450Y-08754D01*
X14550Y-08754D01*
X14550Y-08654D01*
X14550Y-08339D01*
X14612Y-08277D01*
X14648Y-08278D01*
X14747Y-08278D01*
X14838Y-08316D01*
X14908Y-08386D01*
X14946Y-08478D01*
X14947Y-08592D01*
X14885Y-08654D01*
X14550Y-08654D01*
X14550Y-08754D01*
X14885Y-08754D01*
X14947Y-08816D01*
X14946Y-08930D01*
X14917Y-08999D01*
X14946Y-09070D01*
X14946Y-09523D01*
X14941Y-09533D01*
X15050Y-09641D01*
X15050Y-08750D01*
X15365Y-08750D01*
X15365Y-08654D01*
X15303Y-08592D01*
X15304Y-08478D01*
X15342Y-08386D01*
X15412Y-08316D01*
X15503Y-08278D01*
X15602Y-08278D01*
X15638Y-08277D01*
X15700Y-08339D01*
X15700Y-08654D01*
X15365Y-08654D01*
X15365Y-08750D01*
X15800Y-08750D01*
X15800Y-08654D01*
X15800Y-08339D01*
X15862Y-08277D01*
X15898Y-08278D01*
X15997Y-08278D01*
X16088Y-08316D01*
X16158Y-08386D01*
X16196Y-08478D01*
X16197Y-08592D01*
X16135Y-08654D01*
X15800Y-08654D01*
X15800Y-08750D01*
X16304Y-08750D01*
X16304Y-08477D01*
X16342Y-08386D01*
X16412Y-08316D01*
X16504Y-08278D01*
X16711Y-08278D01*
X16711Y-07939D01*
X16636Y-07908D01*
X16566Y-07838D01*
X16528Y-07746D01*
X16528Y-07300D01*
X14050Y-07300D01*
X14050Y-14700D01*
X14888Y-14700D01*
X14888Y-13984D01*
X14557Y-13983D01*
X14458Y-13983D01*
X14367Y-13945D01*
X14297Y-13875D01*
X14259Y-13783D01*
X14258Y-13462D01*
X14320Y-13400D01*
X14950Y-13400D01*
X14950Y-13922D01*
X14888Y-13984D01*
X14888Y-14700D01*
X16149Y-14700D01*
X16100Y-14679D01*
X16057Y-14661D01*
X15938Y-14541D01*
X15873Y-14384D01*
X15873Y-14227D01*
X15814Y-14227D01*
X15657Y-14161D01*
X15538Y-14041D01*
X15513Y-13983D01*
X15443Y-13983D01*
X15112Y-13984D01*
X15050Y-13922D01*
X15050Y-13400D01*
X15680Y-13400D01*
X15700Y-13420D01*
X15816Y-13373D01*
X15986Y-13373D01*
X16100Y-13420D01*
X16143Y-13439D01*
X16262Y-13559D01*
X16283Y-13611D01*
X16600Y-13611D01*
X16711Y-13633D01*
X16758Y-13665D01*
X16758Y-13462D01*
X16820Y-13400D01*
X17450Y-13400D01*
X17450Y-13922D01*
X17388Y-13984D01*
X17091Y-13983D01*
X17344Y-14235D01*
X17407Y-14329D01*
X17429Y-14440D01*
X17429Y-14700D01*
X17612Y-14700D01*
X17612Y-13984D01*
X17550Y-13922D01*
X17550Y-13400D01*
X18180Y-13400D01*
X18242Y-13462D01*
X18241Y-13783D01*
X18203Y-13875D01*
X18133Y-13945D01*
X18042Y-13983D01*
X17943Y-13983D01*
X17612Y-13984D01*
X17612Y-14700D01*
X18450Y-14700D01*
X18450Y-14700D01*
G37*
G54D20*
X18450Y-14700D02*
X18450Y-11299D01*
X18384Y-11327D01*
X18214Y-11327D01*
X18057Y-11261D01*
X17938Y-11141D01*
X17873Y-10984D01*
X17873Y-10881D01*
X17546Y-10554D01*
X17483Y-10461D01*
X17461Y-10350D01*
X17461Y-09704D01*
X17412Y-09684D01*
X17342Y-09614D01*
X17304Y-09522D01*
X17304Y-09069D01*
X17332Y-08999D01*
X17304Y-08930D01*
X17303Y-08816D01*
X17365Y-08754D01*
X17365Y-08654D01*
X17303Y-08592D01*
X17304Y-08478D01*
X17342Y-08386D01*
X17412Y-08316D01*
X17503Y-08278D01*
X17602Y-08278D01*
X17638Y-08277D01*
X17658Y-08297D01*
X17658Y-07947D01*
X17596Y-07885D01*
X17596Y-07550D01*
X17911Y-07550D01*
X17973Y-07612D01*
X17972Y-07648D01*
X17972Y-07747D01*
X17934Y-07838D01*
X17864Y-07908D01*
X17772Y-07946D01*
X17658Y-07947D01*
X17658Y-08297D01*
X17700Y-08339D01*
X17700Y-08654D01*
X17365Y-08654D01*
X17365Y-08754D01*
X17700Y-08754D01*
X17800Y-08754D01*
X17800Y-08654D01*
X17800Y-08339D01*
X17862Y-08277D01*
X17898Y-08278D01*
X17997Y-08278D01*
X18088Y-08316D01*
X18158Y-08386D01*
X18196Y-08478D01*
X18197Y-08592D01*
X18135Y-08654D01*
X17800Y-08654D01*
X17800Y-08754D01*
X18135Y-08754D01*
X18197Y-08816D01*
X18196Y-08930D01*
X18167Y-08999D01*
X18196Y-09070D01*
X18196Y-09523D01*
X18158Y-09614D01*
X18088Y-09684D01*
X18039Y-09704D01*
X18039Y-10230D01*
X18281Y-10473D01*
X18386Y-10473D01*
X18450Y-10499D01*
X18450Y-07300D01*
X17972Y-07300D01*
X17972Y-07352D01*
X17973Y-07388D01*
X17911Y-07450D01*
X17596Y-07450D01*
X17496Y-07450D01*
X17496Y-07550D01*
X17496Y-07885D01*
X17434Y-07947D01*
X17320Y-07946D01*
X17289Y-07933D01*
X17289Y-08500D01*
X17267Y-08611D01*
X17204Y-08705D01*
X17196Y-08712D01*
X17196Y-08931D01*
X17167Y-09000D01*
X17196Y-09070D01*
X17196Y-09523D01*
X17158Y-09614D01*
X17088Y-09684D01*
X17039Y-09704D01*
X17039Y-10190D01*
X17017Y-10301D01*
X16979Y-10357D01*
X16979Y-10470D01*
X16978Y-10470D01*
X16979Y-10471D01*
X16980Y-10498D01*
X16958Y-10519D01*
X16941Y-10561D01*
X16919Y-10582D01*
X16971Y-10593D01*
X17064Y-10656D01*
X17204Y-10795D01*
X17267Y-10889D01*
X17289Y-11000D01*
X17289Y-11085D01*
X17362Y-11159D01*
X17427Y-11316D01*
X17427Y-11486D01*
X17413Y-11517D01*
X18042Y-11517D01*
X18133Y-11555D01*
X18203Y-11625D01*
X18241Y-11717D01*
X18241Y-12584D01*
X18203Y-12675D01*
X18133Y-12745D01*
X18120Y-12749D01*
X18133Y-12755D01*
X18203Y-12825D01*
X18241Y-12917D01*
X18242Y-13238D01*
X18180Y-13300D01*
X17550Y-13300D01*
X17450Y-13300D01*
X16820Y-13300D01*
X16758Y-13238D01*
X16759Y-12917D01*
X16797Y-12825D01*
X16867Y-12755D01*
X16878Y-12750D01*
X16867Y-12745D01*
X16797Y-12675D01*
X16759Y-12583D01*
X16759Y-12267D01*
X15996Y-11504D01*
X15933Y-11411D01*
X15911Y-11300D01*
X15911Y-11189D01*
X15620Y-11189D01*
X15529Y-11151D01*
X15459Y-11081D01*
X15421Y-10989D01*
X15421Y-10730D01*
X15451Y-10656D01*
X15289Y-10819D01*
X15289Y-11074D01*
X15443Y-11139D01*
X15562Y-11259D01*
X15627Y-11416D01*
X15627Y-11552D01*
X15633Y-11555D01*
X15703Y-11625D01*
X15741Y-11717D01*
X15741Y-12584D01*
X15703Y-12675D01*
X15633Y-12745D01*
X15620Y-12749D01*
X15633Y-12755D01*
X15703Y-12825D01*
X15741Y-12917D01*
X15742Y-13238D01*
X15680Y-13300D01*
X15050Y-13300D01*
X14950Y-13300D01*
X14320Y-13300D01*
X14258Y-13238D01*
X14259Y-12917D01*
X14297Y-12825D01*
X14367Y-12755D01*
X14378Y-12750D01*
X14367Y-12745D01*
X14297Y-12675D01*
X14259Y-12583D01*
X14259Y-11716D01*
X14297Y-11625D01*
X14367Y-11555D01*
X14459Y-11517D01*
X14711Y-11517D01*
X14711Y-10700D01*
X14733Y-10589D01*
X14796Y-10496D01*
X14941Y-10350D01*
X14313Y-09722D01*
X14253Y-09722D01*
X14162Y-09684D01*
X14092Y-09614D01*
X14054Y-09522D01*
X14054Y-09069D01*
X14082Y-08999D01*
X14054Y-08930D01*
X14053Y-08816D01*
X14115Y-08754D01*
X14115Y-08654D01*
X14053Y-08592D01*
X14054Y-08478D01*
X14092Y-08386D01*
X14162Y-08316D01*
X14253Y-08278D01*
X14352Y-08278D01*
X14388Y-08277D01*
X14450Y-08339D01*
X14450Y-08654D01*
X14115Y-08654D01*
X14115Y-08754D01*
X14450Y-08754D01*
X14550Y-08754D01*
X14550Y-08654D01*
X14550Y-08339D01*
X14612Y-08277D01*
X14648Y-08278D01*
X14747Y-08278D01*
X14838Y-08316D01*
X14908Y-08386D01*
X14946Y-08478D01*
X14947Y-08592D01*
X14885Y-08654D01*
X14550Y-08654D01*
X14550Y-08754D01*
X14885Y-08754D01*
X14947Y-08816D01*
X14946Y-08930D01*
X14917Y-08999D01*
X14946Y-09070D01*
X14946Y-09523D01*
X14941Y-09533D01*
X15050Y-09641D01*
X15050Y-08750D01*
X15365Y-08750D01*
X15365Y-08654D01*
X15303Y-08592D01*
X15304Y-08478D01*
X15342Y-08386D01*
X15412Y-08316D01*
X15503Y-08278D01*
X15602Y-08278D01*
X15638Y-08277D01*
X15700Y-08339D01*
X15700Y-08654D01*
X15365Y-08654D01*
X15365Y-08750D01*
X15800Y-08750D01*
X15800Y-08654D01*
X15800Y-08339D01*
X15862Y-08277D01*
X15898Y-08278D01*
X15997Y-08278D01*
X16088Y-08316D01*
X16158Y-08386D01*
X16196Y-08478D01*
X16197Y-08592D01*
X16135Y-08654D01*
X15800Y-08654D01*
X15800Y-08750D01*
X16304Y-08750D01*
X16304Y-08477D01*
X16342Y-08386D01*
X16412Y-08316D01*
X16504Y-08278D01*
X16711Y-08278D01*
X16711Y-07939D01*
X16636Y-07908D01*
X16566Y-07838D01*
X16528Y-07746D01*
X16528Y-07300D01*
X14050Y-07300D01*
X14050Y-14700D01*
X14888Y-14700D01*
X14888Y-13984D01*
X14557Y-13983D01*
X14458Y-13983D01*
X14367Y-13945D01*
X14297Y-13875D01*
X14259Y-13783D01*
X14258Y-13462D01*
X14320Y-13400D01*
X14950Y-13400D01*
X14950Y-13922D01*
X14888Y-13984D01*
X14888Y-14700D01*
X16149Y-14700D01*
X16100Y-14679D01*
X16057Y-14661D01*
X15938Y-14541D01*
X15873Y-14384D01*
X15873Y-14227D01*
X15814Y-14227D01*
X15657Y-14161D01*
X15538Y-14041D01*
X15513Y-13983D01*
X15443Y-13983D01*
X15112Y-13984D01*
X15050Y-13922D01*
X15050Y-13400D01*
X15680Y-13400D01*
X15700Y-13420D01*
X15816Y-13373D01*
X15986Y-13373D01*
X16100Y-13420D01*
X16143Y-13439D01*
X16262Y-13559D01*
X16283Y-13611D01*
X16600Y-13611D01*
X16711Y-13633D01*
X16758Y-13665D01*
X16758Y-13462D01*
X16820Y-13400D01*
X17450Y-13400D01*
X17450Y-13922D01*
X17388Y-13984D01*
X17091Y-13983D01*
X17344Y-14235D01*
X17407Y-14329D01*
X17429Y-14440D01*
X17429Y-14700D01*
X17612Y-14700D01*
X17612Y-13984D01*
X17550Y-13922D01*
X17550Y-13400D01*
X18180Y-13400D01*
X18242Y-13462D01*
X18241Y-13783D01*
X18203Y-13875D01*
X18133Y-13945D01*
X18042Y-13983D01*
X17943Y-13983D01*
X17612Y-13984D01*
X17612Y-14700D01*
X18450Y-14700D01*
G54D10*
G36*
X16650Y-09950D02*
X16650Y-09711D01*
X16638Y-09723D01*
X16602Y-09722D01*
X16503Y-09722D01*
X16412Y-09684D01*
X16342Y-09614D01*
X16304Y-09522D01*
X16303Y-09408D01*
X16365Y-09346D01*
X16650Y-09346D01*
X16650Y-09246D01*
X16365Y-09246D01*
X16303Y-09184D01*
X16303Y-09150D01*
X16196Y-09150D01*
X16197Y-09184D01*
X16135Y-09246D01*
X15800Y-09246D01*
X15700Y-09246D01*
X15700Y-09346D01*
X15800Y-09346D01*
X16135Y-09346D01*
X16197Y-09408D01*
X16196Y-09522D01*
X16158Y-09614D01*
X16093Y-09678D01*
X16335Y-09759D01*
X16430Y-09950D01*
X16650Y-09950D01*
X16650Y-09950D01*
G37*
G54D20*
X16650Y-09950D02*
X16650Y-09711D01*
X16638Y-09723D01*
X16602Y-09722D01*
X16503Y-09722D01*
X16412Y-09684D01*
X16342Y-09614D01*
X16304Y-09522D01*
X16303Y-09408D01*
X16365Y-09346D01*
X16650Y-09346D01*
X16650Y-09246D01*
X16365Y-09246D01*
X16303Y-09184D01*
X16303Y-09150D01*
X16196Y-09150D01*
X16197Y-09184D01*
X16135Y-09246D01*
X15800Y-09246D01*
X15700Y-09246D01*
X15700Y-09346D01*
X15800Y-09346D01*
X16135Y-09346D01*
X16197Y-09408D01*
X16196Y-09522D01*
X16158Y-09614D01*
X16093Y-09678D01*
X16335Y-09759D01*
X16430Y-09950D01*
X16650Y-09950D01*
M02*
